<?xml version="1.0" encoding="utf-8"?>
<!-- Generator: Adobe Illustrator 19.2.1, SVG Export Plug-In . SVG Version: 6.00 Build 0)  -->
<svg version="1.1"
	 id="svg2" xmlns:cc="http://creativecommons.org/ns#" xmlns:dc="http://purl.org/dc/elements/1.1/" xmlns:inkscape="http://www.inkscape.org/namespaces/inkscape" xmlns:rdf="http://www.w3.org/1999/02/22-rdf-syntax-ns#" xmlns:svg="http://www.w3.org/2000/svg"
	 xmlns="http://www.w3.org/2000/svg" xmlns:xlink="http://www.w3.org/1999/xlink" x="0px" y="0px" viewBox="0 0 30 30"
	 style="enable-background:new 0 0 30 30;" xml:space="preserve">
<path d="M23.2,13.4c1.4,0.3,2.8,0.8,4,1.3l-10,10C16,26,14,26,12.8,24.6l-10-10c1.2-0.5,2.6-1,4.1-1.3l7.4,7.5l0,0
	c0.4,0.4,1.1,0.4,1.5,0l0,0L23.2,13.4L23.2,13.4z M23.2,4.4c1.4,0.3,2.8,0.7,4.1,1.2l-10,10c-1.2,1.2-3.3,1.2-4.5,0l-10-10
	c1.2-0.5,2.6-1,4.1-1.3l7.4,7.5l0,0c0.4,0.4,1.1,0.4,1.5,0l0,0L23.2,4.4L23.2,4.4z"/>
</svg>
